<svg xmlns="http://www.w3.org/2000/svg" version="1.1" xmlns:xlink="http://www.w3.org/1999/xlink" xmlns:svgjs="http://svgjs.dev/svgjs" width="1024" height="1024"><svg xmlns="http://www.w3.org/2000/svg" xml:space="preserve" style="fill-rule:evenodd;clip-rule:evenodd;stroke-linejoin:round;stroke-miterlimit:2" viewBox="0 0 1024 1024"><path d="M889.539 228.53v597.402c0 109.317-87.274 198.068-194.772 198.068H305.225c-107.497 0-194.771-88.751-194.771-198.068V228.53c0-109.317 87.274-198.068 194.771-198.068h389.542c107.498 0 194.772 88.751 194.772 198.068Z" style="fill:#fff" transform="matrix(1.04811 0 0 1.03066 -12.05 -31.396)"></path><path d="M889.539 228.53v597.402c0 109.317-87.274 198.068-194.772 198.068H305.225c-107.497 0-194.771-88.751-194.771-198.068V228.53c0-109.317 87.274-198.068 194.771-198.068h389.542c107.498 0 194.772 88.751 194.772 198.068Zm-27.669 0c0-93.787-74.876-169.931-167.103-169.931H305.225c-92.226 0-167.102 76.144-167.102 169.931v597.402c0 93.787 74.876 169.931 167.102 169.931h389.542c92.227 0 167.103-76.144 167.103-169.931V228.53Z" style="fill:#d9d9d9" transform="matrix(1.04811 0 0 1.03066 -12.05 -31.396)"></path><path d="M480.25 156.355c0 161.24-224.25 324.43-224.25 324.43S31.75 317.595 31.75 156.355c0-91.41 70.63-125.13 107.77-125.13 77.65 0 116.48 65.72 116.48 65.72s38.83-65.73 116.48-65.73c37.14.01 107.77 33.72 107.77 125.14" style="fill:#dd524c;fill-rule:nonzero" transform="matrix(.95466 0 0 .95466 267.609 470.814)"></path><path d="M.03 0a.024.024 0 0 1-.015-.006.024.024 0 0 1-.006-.015L.01-.03l.235-.642a.044.044 0 0 1 .012-.019A.038.038 0 0 1 .284-.7h.148c.011 0 .02.003.026.009a.038.038 0 0 1 .013.019l.234.642.002.009A.02.02 0 0 1 .7-.006.02.02 0 0 1 .685 0H.562C.552 0 .544-.002.539-.007A.046.046 0 0 1 .53-.021L.491-.123H.224l-.038.102c-.001.004-.005.009-.009.014C.172-.002.164 0 .153 0H.03Zm.235-.267h.186L.358-.531l-.093.264Z" style="fill:#dd524c;fill-rule:nonzero" transform="matrix(510.35848 0 0 510.35848 329.39 451.456)"></path></svg><style>@media (prefers-color-scheme: light) { :root { filter: none; } }
@media (prefers-color-scheme: dark) { :root { filter: none; } }
</style></svg>