<svg xmlns="http://www.w3.org/2000/svg" version="1.1" xmlns:xlink="http://www.w3.org/1999/xlink" xmlns:svgjs="http://svgjs.dev/svgjs" width="1024" height="1024"><svg viewBox="0 0 1024 1024" version="1.1" xmlns="http://www.w3.org/2000/svg" xmlns:xlink="http://www.w3.org/1999/xlink" xml:space="preserve" xmlns:serif="http://www.serif.com/" style="fill-rule:evenodd;clip-rule:evenodd;stroke-linejoin:round;stroke-miterlimit:2;">
    <g transform="matrix(1.04811,0,0,1.03066,-12.0498,-31.396)">
        <path d="M889.539,228.53L889.539,825.932C889.539,935.249 802.265,1024 694.767,1024L305.225,1024C197.728,1024 110.454,935.249 110.454,825.932L110.454,228.53C110.454,119.213 197.728,30.462 305.225,30.462L694.767,30.462C802.265,30.462 889.539,119.213 889.539,228.53Z" style="fill:white;"></path>
        <path d="M889.539,228.53L889.539,825.932C889.539,935.249 802.265,1024 694.767,1024L305.225,1024C197.728,1024 110.454,935.249 110.454,825.932L110.454,228.53C110.454,119.213 197.728,30.462 305.225,30.462L694.767,30.462C802.265,30.462 889.539,119.213 889.539,228.53ZM861.87,228.53C861.87,134.743 786.994,58.599 694.767,58.599L305.225,58.599C212.999,58.599 138.123,134.743 138.123,228.53L138.123,825.932C138.123,919.719 212.999,995.863 305.225,995.863L694.767,995.863C786.994,995.863 861.87,919.719 861.87,825.932L861.87,228.53Z" style="fill:rgb(217,217,217);"></path>
    </g>
    <g transform="matrix(1.29449,0,0,1.29449,-159.051,-213.428)">
        <g transform="matrix(0.737482,0,0,0.737482,329.597,514.398)">
            <path d="M480.25,156.355C480.25,317.595 256,480.785 256,480.785C256,480.785 31.75,317.595 31.75,156.355C31.75,64.945 102.38,31.225 139.52,31.225C217.17,31.225 256,96.945 256,96.945C256,96.945 294.83,31.215 372.48,31.215C409.62,31.225 480.25,64.935 480.25,156.355" style="fill:rgb(221,82,76);fill-rule:nonzero;"></path>
        </g>
        <g transform="matrix(0.603499,0,0,0.603499,204.433,218.128)">
            <g transform="matrix(518.999,0,0,518.999,334.528,419.143)">
                <path d="M0.03,-0C0.025,-0 0.02,-0.002 0.015,-0.006C0.011,-0.011 0.009,-0.016 0.009,-0.021C0.009,-0.024 0.009,-0.027 0.01,-0.03L0.245,-0.672C0.247,-0.679 0.251,-0.685 0.257,-0.691C0.264,-0.697 0.272,-0.7 0.284,-0.7L0.432,-0.7C0.443,-0.7 0.452,-0.697 0.458,-0.691C0.465,-0.685 0.469,-0.679 0.471,-0.672L0.705,-0.03C0.706,-0.027 0.707,-0.024 0.707,-0.021C0.707,-0.016 0.705,-0.011 0.7,-0.006C0.696,-0.002 0.691,-0 0.685,-0L0.562,-0C0.552,-0 0.544,-0.002 0.539,-0.007C0.535,-0.012 0.531,-0.017 0.53,-0.021L0.491,-0.123L0.224,-0.123L0.186,-0.021C0.185,-0.017 0.181,-0.012 0.177,-0.007C0.172,-0.002 0.164,-0 0.153,-0L0.03,-0ZM0.265,-0.267L0.451,-0.267L0.358,-0.531L0.265,-0.267Z" style="fill:rgb(221,82,76);fill-rule:nonzero;"></path>
            </g>
        </g>
    </g>
</svg><style>@media (prefers-color-scheme: light) { :root { filter: none; } }
@media (prefers-color-scheme: dark) { :root { filter: none; } }
</style></svg>